<?xml version="1.0" standalone="no"?>
<!DOCTYPE svg PUBLIC "-//W3C//DTD SVG 1.1//EN" "http://www.w3.org/Graphics/SVG/1.1/DTD/svg11.dtd" >
<svg xmlns="http://www.w3.org/2000/svg">
<metadata></metadata>
<defs>
<font id="icomoonregular" horiz-adv-x="2048" >
<font-face units-per-em="2048" ascent="1920" descent="-128" />
<missing-glyph horiz-adv-x="1024" />
<glyph horiz-adv-x="0" d="M0 0z" />
<glyph horiz-adv-x="0" d="M0 0z" />
<glyph unicode="&#xd;" />
<glyph horiz-adv-x="0" d="M0 0z" />
<glyph unicode=" " horiz-adv-x="1024" d="M0 0z" />
<glyph unicode="," d="M-6 1914l2 -392l4 4q224 -2 436 -60q212 -60 394 -166q178 -108 332 -260q150 -154 258 -334q104 -184 166 -396q54 -216 58 -440l388 -2q4 280 -74 544q-68 266 -204 490q-128 224 -320 412q-184 190 -412 320q-220 134 -488 206q-260 74 -540 74zM0 828l4 4 q190 0 366 -72q172 -72 308 -208q134 -136 206 -312q72 -174 72 -368h392q0 182 -50 358q-48 174 -134 324q-88 146 -212 272q-124 124 -272 212q-148 86 -322 136q-174 46 -358 48v-394zM4 146q0 -112 80 -192t192 -80t192 80t80 192t-80 192t-192 80t-192 -80t-80 -192z " />
<glyph unicode="." horiz-adv-x="2272" d="M78 228q0 -26 10 -51t28 -42t42 -28t52 -11h1850q28 0 52 11t42 28t28 42t10 51v1322q0 28 -10 52t-28 42t-42 28t-52 10h-1850q-28 0 -52 -10t-42 -28t-28 -42t-10 -52v-1322zM210 322v852l506 -344zM210 1334v216h1850v-214l-4 4l-922 -636zM304 228l524 526l308 -210 l304 210l526 -526h-1662zM1550 832l510 350v-860z" />
<glyph unicode="1" d="M10 122h2l1190 -250v2048l-1192 -230v-1568zM340 884l2 4q0 162 76 262q76 102 200 100q116 2 190 -96q70 -92 72 -254q-2 -162 -74 -262q-78 -98 -198 -100q-118 0 -192 96q-78 96 -76 250zM466 888l2 4q2 -102 38 -162q40 -60 100 -60q64 0 102 56q36 60 38 160 q-2 106 -36 166q-38 60 -100 58q-66 2 -104 -60q-40 -60 -40 -162zM1264 1472l2 -404l2 4l136 -86q10 -4 14 -2l606 404q-4 34 -24 56q-28 28 -46 24zM1266 380l2 4l650 -2q44 0 78 28q26 28 30 84l-4 736q-584 -392 -590 -394q-16 -14 -40 0l-122 88z" />
<glyph unicode="2" d="M-2 1564l2 2q0 -106 74 -182q74 -74 180 -74q104 0 180 74q72 74 74 180q-2 104 -74 180q-76 72 -180 74q-108 -2 -182 -74q-76 -76 -74 -180zM758 1556l2 2q0 -104 74 -182q74 -72 180 -74q106 2 180 74q74 76 74 180q0 106 -76 180q-74 74 -180 74t-180 -74t-74 -180z M760 888v2q2 -104 74 -180q76 -72 180 -74q108 0 180 74q76 74 76 180t-76 180q-74 74 -180 74t-180 -76q-74 -74 -74 -180zM1522 1546l2 2q0 -104 74 -182q74 -72 180 -74q104 2 180 74q72 76 74 180q-2 106 -74 180q-76 74 -180 74q-108 0 -182 -74q-76 -74 -74 -180z M1524 878l2 2q2 -104 74 -180q76 -72 180 -74q106 0 180 74t74 180t-74 180t-180 74t-182 -76q-74 -74 -74 -180zM1528 212l2 2q0 -106 74 -182q74 -74 180 -74q104 0 180 74q72 74 74 180q-2 104 -74 180q-76 72 -180 74q-108 -2 -182 -74q-76 -76 -74 -180z" />
<glyph unicode="3" d="M-14 792l14 16q0 -140 70 -260q68 -120 188 -190q116 -68 258 -68q112 0 218 48q98 48 176 134l110 -166l108 170q66 -88 176 -140q98 -48 222 -50q134 0 258 68q112 70 188 190q62 118 70 258q-8 182 -116 326q32 116 90 168l-348 -2l-16 2q-2 14 -26 32q-8 16 -66 48 q-42 28 -116 54q-58 18 -184 40q-108 12 -258 16q-106 -4 -210 -12q-90 -14 -162 -28q-58 -20 -118 -38q-44 -24 -82 -42q-20 -24 -48 -38q-12 -20 -26 -28v-14l-360 2q56 -50 94 -186q-100 -140 -104 -310zM86 788h6q-4 174 122 294q116 124 292 122q166 2 292 -122 q116 -120 120 -294q-4 -170 -122 -294q-126 -118 -294 -120q-176 0 -294 120q-126 122 -122 294zM244 786l4 2q4 -102 72 -174q76 -74 174 -74q106 0 174 72q78 72 72 176q6 100 -72 176q-68 68 -176 72q-96 -4 -176 -74q-66 -76 -72 -176zM318 780l6 2q-4 76 48 122 q48 54 120 52q70 0 120 -52q52 -50 50 -122q2 -70 -50 -122q-50 -50 -122 -50q-70 0 -122 50q-48 50 -50 120zM404 776l2 4q0 -34 24 -58q24 -26 58 -26q36 0 58 24q26 26 26 58q0 36 -26 60q-24 24 -58 24t-60 -26q-24 -24 -24 -60zM494 1264q4 6 16 16q10 10 54 36 q40 26 92 46q50 18 138 36q86 14 186 16l32 -2q102 2 184 -16q90 -12 140 -38q54 -20 92 -44q38 -20 54 -38l16 -12q-8 -2 -22 2q-14 0 -56 -2q-40 -4 -82 -12q-40 -12 -92 -38q-54 -30 -98 -70q-44 -44 -86 -116q-42 -76 -68 -168q-26 92 -68 168q-42 70 -88 114 q-46 38 -96 70q-50 24 -94 36q-46 6 -82 12q-36 2 -56 2zM1074 768h4q0 174 120 294q122 124 292 122q172 2 292 -122q122 -120 122 -294q0 -170 -122 -294q-120 -118 -292 -120q-172 0 -294 120q-122 122 -122 294zM1236 766l4 2q0 -102 72 -174q74 -74 174 -74 q106 0 174 72q76 72 74 176q0 100 -74 176q-72 68 -174 72q-104 -4 -176 -74q-74 -76 -74 -176zM1308 760l4 2q0 74 50 122q52 52 120 52q74 0 120 -52q54 -50 52 -122q0 -70 -52 -122q-50 -50 -120 -50q-72 0 -122 50q-52 52 -52 120zM1394 758l2 4q0 -36 24 -58 q24 -28 58 -26q36 -2 58 24q26 24 26 58t-26 60q-24 22 -58 24q-34 -2 -60 -26q-24 -26 -24 -60z" />
<glyph unicode="4" d="M30 -92h344l198 944q62 278 276 552q216 278 420 278q170 0 170 -218q0 -116 -56 -344l-84 -382q-70 -328 -70 -500q0 -170 90 -268q92 -100 244 -100q210 0 448 208l-64 108q-132 -84 -238 -84q-130 0 -130 174q0 168 48 386l94 436q68 290 66 404q2 408 -394 408 q-372 0 -672 -498h-36l96 464h-680l-36 -154h32q254 0 256 -176q-2 -64 -22 -166z" />
<glyph unicode="5" d="M-14 476l14 16q0 -80 58 -140q56 -54 138 -56q70 0 126 46q52 46 66 116h284q16 -134 112 -226q104 -92 236 -92q140 0 236 92q104 92 112 226h292q6 -70 66 -116q48 -46 126 -46q74 0 138 56q50 58 58 136q-8 84 -58 138q-64 60 -138 58q-80 0 -126 -48 q-62 -46 -66 -116h-294q-2 110 -82 194l250 244q50 -40 128 -36q64 6 122 56q48 58 56 138q-8 82 -58 138q-64 56 -138 56q-88 0 -138 -58q-58 -50 -56 -122q-14 -72 34 -128l-252 -246q-74 64 -186 76l4 416q64 14 116 66q40 56 46 126q-6 82 -58 138q-62 58 -138 58 q-86 0 -138 -58q-64 -56 -58 -138q-6 -72 46 -126q40 -54 116 -66l-6 -420q-100 -10 -188 -76l-238 244q34 58 34 128q-10 72 -56 122q-62 56 -138 56q-86 0 -138 -58q-62 -56 -58 -138q-4 -82 56 -138q46 -52 122 -58q66 -4 128 36l238 -244q-66 -84 -82 -194h-282 q-18 70 -66 116q-60 46 -126 46q-86 0 -138 -56q-64 -58 -58 -138z" />
<glyph unicode="6" d="M-14 760l14 6q4 -28 22 -50q22 -22 54 -30q32 -6 62 2t52 32q4 2 8 12q6 8 8 14q8 6 24 8l728 -12q8 2 10 10q-6 26 0 36q-2 8 0 8q-4 2 -10 2l-738 -10q-6 0 -12 10q0 30 -32 54q-26 24 -72 24q-30 0 -64 -16q-26 -16 -44 -44q-10 -28 -10 -56zM690 1028l12 12 q0 -20 16 -32q26 -28 62 -14q10 6 14 6q-2 0 12 -10l170 -134q8 -6 10 0q12 16 22 26q4 4 2 4q0 4 -2 4q-2 4 -6 4q-2 2 -4 2l-4 2l-166 118q-2 2 -8 4q-6 4 -8 4q-2 2 -4 6q-2 6 2 8v6q-2 26 -20 38q-18 16 -42 16q-34 0 -50 -32q-10 -18 -8 -38zM744 548l8 6 q-4 -36 28 -58q28 -22 66 -16q24 8 44 30q12 26 12 52q-6 8 4 8q20 16 98 56v12q-10 4 -4 2q-18 12 -18 20q-10 6 -8 4q-6 2 -6 -2l-90 -52q-2 -6 -14 -2q-32 26 -78 8q-36 -22 -42 -68zM984 748l10 2q-4 -34 20 -68q34 -56 120 -62l4 2h18h-10q52 2 86 30q44 24 54 68 q18 40 0 80q-10 40 -50 64q-36 28 -92 28q-36 -4 -78 -22q-34 -20 -60 -52q-18 -34 -22 -70zM1040 1118l12 12q12 -50 68 -68q4 0 8 -12l-14 -112q4 -8 2 -10q8 -4 8 -2q28 2 36 0q12 -2 6 0q8 0 2 6q4 76 -4 114q6 4 4 10q10 0 12 6q14 -2 10 2q24 6 28 20q34 26 26 66 q8 32 -18 62q-12 26 -50 38q-12 4 -38 4q-46 -2 -80 -40q-28 -44 -18 -96zM1252 608l8 4q-10 -4 0 -8l28 -20q8 -2 4 -4q4 -4 0 -8v-8q0 -8 4 -22q14 -26 36 -26q22 -2 36 12q16 14 16 36t-16 38q-16 12 -38 10q-20 -8 -36 12l-2 2q-2 0 -4 2q-4 4 -8 4q-6 0 -10 -6 q-6 -8 -18 -18zM1258 862l14 2v-4t2 -4l4 -2q0 -2 4 -4q6 -10 14 -18q0 -4 2 -4h2l4 2q0 2 4 2l238 156q8 0 16 -6q46 -26 80 6q32 18 30 52q4 28 -20 56q-18 20 -54 24q-34 -4 -60 -28q-20 -30 -16 -62q4 -12 -6 -12q-86 -54 -254 -152q0 -6 -4 -4zM1304 698l6 8 q-6 -4 6 -8l474 10l8 -4q6 -10 6 -14l4 -12q8 -18 24 -30q30 -24 70 -18q34 4 56 30q24 26 22 60q2 34 -22 62q-20 24 -56 32q-4 -2 -18 0q-30 -4 -56 -20q-22 -20 -32 -48q-2 -12 -12 -10l-474 4q-4 2 -2 -18q-2 -4 -4 -24z" />
<glyph unicode="7" d="M48 1712l30 22q-6 -20 20 -114q16 -56 44 -134q30 -76 36 -100q8 -18 18 -62q16 -42 18 -60q6 -6 6 -12q10 -4 6 -6q24 -40 40 -118q24 -78 28 -98q4 -6 6 -12q8 -4 6 -6q6 -6 4 -18q6 -12 6 -16q36 -100 68 -206q34 -106 74 -244q40 -136 66 -220q8 -26 24 -82t26 -94 q12 -36 28 -86q18 -48 32 -80q14 -30 34 -56q18 -26 38 -34q10 -4 24 -6q16 0 34 2q22 2 38 6q20 2 46 12q30 6 48 16q20 2 52 16q34 8 54 16l636 198q4 2 84 22q80 22 128 40q46 18 54 34q0 2 6 2q4 2 6 2v4h-4q2 4 6 4l6 2q16 20 18 56v20l2 16q0 24 -10 50q-10 34 -14 46 l4 10q-2 10 -8 22q-4 12 -6 16q-2 8 -4 28q-2 18 -6 28l-4 12v2l-6 12q-6 18 -6 14l-6 14q-6 18 -8 12q0 -2 -8 12q-10 16 -12 8q-2 -4 -14 6q-10 14 -16 2l-18 2v-2h-20l-20 -4q0 -4 -24 -8l-24 -6q0 -6 -24 -8l-26 -8q-534 -172 -556 -176q-2 -2 -12 -4q-6 -6 -12 -6 q-4 -2 -12 -2q-4 0 -12 2l-240 764q-18 56 -54 180q-38 128 -56 192q-10 28 -26 82q-18 58 -26 88q-12 32 -26 72q-16 40 -32 64q-18 22 -36 34q-16 6 -44 8q-70 -2 -182 -38q-116 -38 -188 -70q-12 -6 -26 -10q-16 -8 -24 -10l-16 -8q-12 -10 -22 -24q-12 -18 -14 -24z" />
<glyph unicode="8" d="M8 914l12 12q-2 -24 14 -54q140 -170 426 -288q-94 -318 20 -522q70 -128 198 -174q114 -40 208 4q94 46 108 156q0 18 2 40l-2 384l2 2q0 -2 54 -14l-2 -374q0 -126 88 -184q90 -54 198 -24q134 32 206 150q130 178 62 468q-2 40 -22 84q154 58 252 136q112 74 168 152 q34 40 4 72q-18 26 -70 0q4 -6 -6 -6q2 -8 -8 -8q0 -6 -14 -4l4 788q-4 88 -50 140q-54 62 -124 58l-1440 4q-72 -4 -136 -58q-54 -62 -58 -140l4 -798l-4 6q-6 4 -10 6l-8 4q-30 20 -52 12q-24 -6 -24 -30zM224 834v14l2 768q-2 106 32 146q30 40 126 40h1266q90 0 118 -42 q32 -42 30 -144l2 -764q-50 -26 -100 -48q-52 -20 -92 -34q-42 -12 -92 -22q-54 -8 -84 -12q-32 -4 -80 -6h-70h-64q-48 2 -52 2q-70 2 -98 -22q-30 -28 -32 -76q-26 14 -68 56q-10 4 -12 10q-34 30 -104 30q-6 -4 -52 -4q-52 -4 -68 -4h-68q-54 0 -84 4q-32 2 -82 10 q-54 6 -92 20q-42 10 -88 32q-52 18 -94 46zM490 1036v6q2 -90 70 -158q72 -64 170 -66q102 0 170 64q72 66 70 158q2 92 -70 158q-68 64 -170 64q-98 0 -170 -66q-68 -66 -70 -160zM1052 1034l6 4q0 -92 70 -162q70 -64 170 -66q98 2 170 66q68 68 70 160q-2 94 -72 158 q-72 66 -170 66q-102 0 -172 -66q-72 -66 -72 -160z" />
<glyph unicode="9" d="M2 874l8 8v-8q2 -6 2 -8l4 -4q2 -4 6 -6q4 -4 6 -4q2 -2 8 -4q4 -2 6 -2l894 -418q72 -34 142 -2l898 420q12 4 20 10q16 12 16 22q0 14 -16 24q-4 4 -16 10l-160 74q-30 14 -70 14q-36 0 -70 -16l-604 -282q-72 -34 -140 -2l-600 282q-72 32 -146 0l-150 -72 q-2 0 -10 -4q-8 -2 -10 -4q-4 -2 -8 -6q-6 -4 -8 -10q-2 -4 -2 -12zM10 328l6 10q2 -6 2 -10q2 -2 2 -6q4 -4 4 -6q2 -2 6 -4t6 -4q2 0 8 -2q4 -2 6 -4l894 -416q72 -34 142 -2l900 420q14 6 20 10q14 10 14 22q0 14 -16 22q-4 6 -16 8l-160 76q-32 12 -70 14 q-34 -2 -70 -18l-604 -282q-72 -32 -140 -2l-600 282q-72 32 -146 0l-150 -72q-2 0 -10 -4q-8 -2 -10 -6q-4 0 -8 -6q-6 -2 -8 -8q-2 -4 -2 -12zM16 1446l2 4q0 -12 12 -20q4 -4 30 -16l892 -418q72 -32 142 0l894 418q18 8 28 16q22 18 0 38q-10 6 -28 16l-892 414 q-36 18 -76 18q-36 0 -74 -16l-890 -416q-24 -12 -28 -16q-14 -10 -12 -22z" />
<glyph unicode=":" d="M0 80l422 58q132 -112 294 -174q164 -62 342 -62q202 0 382 78q184 78 316 212q132 132 210 318q78 182 78 386q0 200 -78 386q-78 182 -210 318q-132 130 -316 212q-182 74 -382 78q-202 -4 -384 -78q-182 -82 -314 -212q-132 -138 -210 -318q-78 -188 -78 -386 q0 -220 88 -412zM670 400h2v988l372 -4q258 4 402 -134q146 -128 146 -352q0 -222 -148 -358q-148 -140 -406 -138zM934 644l2 4l110 -2q126 2 200 64q78 64 78 180v2q0 116 -78 180q-76 64 -200 64h-112v-492z" />
<glyph unicode=";" d="M-26 1332l30 34q14 -54 38 -110q24 -54 66 -130q38 -74 54 -102q96 -174 192 -306q90 -132 206 -236q104 -96 254 -138q144 -40 302 -26q38 4 62 34q14 28 20 66q-6 32 6 78q0 40 22 66q12 12 38 18q12 0 34 -2q6 -8 34 -22q8 -20 28 -28q0 -14 26 -34q8 -28 22 -30 q120 -152 244 -160q56 14 120 12q40 -10 122 -4q54 -2 116 24q2 14 20 38q-10 18 -8 44q-24 20 -22 40q-24 14 -30 42q-34 20 -28 34q-52 44 -118 126q-96 72 -110 108q-28 14 -18 42q-16 14 8 46q0 18 18 38q-4 4 32 42q12 24 28 32q6 22 70 88q36 56 76 98q14 30 56 94 q18 52 42 112q-18 30 -34 48q-42 12 -62 12q-44 -4 -74 -6q-56 -4 -64 0q-34 -4 -86 4q-74 6 -104 -2q-54 -10 -66 -48q-68 -128 -106 -222q-62 -94 -114 -174q-22 -16 -24 -32q-26 -14 -32 -28q-28 -12 -34 -12q-28 2 -28 22q-34 34 -28 84q-14 50 0 88q-10 36 6 100 q0 66 6 118q-8 54 -20 96q-20 18 -28 26q-24 12 -42 16q-34 4 -38 6q-18 0 -46 2q-44 0 -40 0q-42 -2 -76 -2q-48 0 -78 -2q-42 0 -74 -10q-44 -10 -68 -32q-30 -18 -12 -36q6 -16 38 -24q18 -10 48 -30q14 -22 16 -50q20 -174 -6 -340q-24 -66 -74 -36q-46 22 -66 68 q-10 8 -8 14q-96 124 -210 378q-28 36 -60 46q-44 6 -96 4q-66 -10 -80 -6q-18 -4 -44 0q-36 0 -54 2q-30 -2 -48 -4q-30 -6 -36 -22q-18 -18 -6 -44z" />
<glyph unicode="&#x3c;" horiz-adv-x="2420" d="M62 210l792 674l-792 688v-1362zM114 120q10 -10 23 -18t28 -14t30 -9t31 -3h1966q16 0 32 3t30 9t27 14t25 18l-812 696l-284 -248l-284 248zM114 1672l1096 -940l1096 940q-12 10 -25 18t-27 14t-29 9t-33 3h-1966q-16 0 -31 -3t-30 -9t-28 -14t-23 -18zM1566 884 l792 -674v1362z" />
<glyph unicode="&#x3e;" d="M4 150q-2 -56 20 -106t58 -87t87 -59t105 -22q52 0 94 16t78 45t60 68t36 83q54 -14 113 -13t114 16t107 44t94 73l456 454h-2l-200 200l-456 -454q-22 -24 -54 -36t-63 -12t-63 12t-54 38q-28 24 -39 55t-12 63t12 63t37 55l16 16l-202 200l-14 -14q-46 -44 -74 -96 t-44 -108t-15 -114t13 -114q-44 -12 -83 -36t-66 -59t-44 -79t-15 -92zM6 1642q0 56 21 106t58 87t87 59t106 22q52 0 96 -18t81 -49t60 -72t33 -91q54 14 112 13t112 -16t105 -44t93 -73l18 -16l-204 -202l-14 16q-26 26 -56 38t-63 12t-63 -13t-56 -37q-24 -24 -37 -55 t-12 -63t12 -63t39 -55l36 -40l418 -414l-204 -202l-452 454q-48 46 -77 100t-44 113t-12 119t17 118q-44 10 -83 35t-67 60t-45 79t-15 92zM594 1112l204 -202l452 454q26 24 56 37t63 13t63 -13t56 -37q24 -24 37 -55t12 -63t-12 -63t-39 -55l-12 -16l198 -202l18 16 q44 46 74 99t44 111t14 118t-20 118q54 6 96 30t75 60t50 82t19 98q-2 56 -22 106t-58 87t-87 59t-107 22q-50 0 -97 -18t-83 -50t-60 -75t-30 -93q-60 16 -119 18t-118 -13t-112 -44t-101 -75l-36 -40zM1034 222l16 -14q44 -46 100 -76t114 -44t120 -12t118 20 q12 -48 35 -88t59 -69t80 -46t96 -17q54 0 105 22t87 59t58 87t20 106q2 52 -17 98t-49 82t-74 60t-92 30q12 56 12 113t-16 113t-44 107t-74 95l-38 38l-416 416l-198 -202l450 -454q28 -24 39 -55t12 -63t-12 -63t-37 -55q-26 -26 -56 -38t-63 -12t-63 12t-56 38l-14 14z " />
<glyph unicode="A" d="M-8 484l8 8q0 -124 50 -242q52 -114 132 -198q84 -80 190 -132q110 -48 220 -50l822 2h9q117 0 229 50q114 48 200 134q84 82 138 200q50 114 52 242l-2 488v8q0 70 -32 104q-27 38 -102 38h-8l-88 2h-7q-59 0 -93 34q-38 34 -38 84v58q0 140 -92 280q-92 142 -232 228 q-135 88 -268 88h-6l-432 2q-134 -2 -256 -50q-120 -52 -206 -138q-86 -88 -138 -208q-50 -122 -50 -254v-778zM516 506l6 2q0 46 34 80q36 30 82 32l740 -2h5q43 0 79 -32q30 -30 34 -80q-4 -46 -34 -82q-40 -30 -84 -32l-742 2h-5q-43 0 -81 32q-30 30 -34 80zM516 1248 l4 4v9q0 44 36 75q27 36 73 36h9l366 4q52 -4 84 -36q36 -38 36 -81v-10q0 -50 -36 -81q-31 -38 -75 -38h-9l-368 -4q-52 4 -84 36q-38 40 -36 86z" />
<glyph unicode="B" d="M-2 1244q2 -176 80 -348q102 -216 284 -362q20 -10 28 -24q12 -14 14 -34t2 -36q0 -14 -2 -40q-2 -24 -2 -36q-2 -20 -22 -186q-18 -164 -24 -252q78 46 260 168q180 124 286 176q182 -30 364 -32l24 2q194 0 388 58q198 52 366 158v1406l-1798 2q-108 -146 -170 -268 q-62 -128 -74 -262l2 2q-4 -46 -6 -92zM402 1152q2 18 0 26l4 10q2 92 40 176q40 86 106 154q108 116 264 178q152 62 320 64h18h18q296 0 516 -160q106 -78 176 -196q58 -112 62 -230l-4 -16v-6q0 -139 -88 -262q-84 -124 -220 -198q-148 -84 -330 -108q-58 -8 -124 -8 q-110 0 -228 26q-170 44 -312 146q-102 82 -166 192q-50 108 -52 212z" />
<glyph unicode="C" d="M-12 902q0 -64 32 -118l12 10q30 -52 80 -82q-4 -36 -6 -74q2 -122 70 -234q72 -110 202 -196q128 -82 292 -128q164 -44 342 -44h12q246 0 456 84q212 82 330 224q120 138 120 299v5v2q0 28 -8 66q54 30 86 82q32 54 32 112v6q0 90 -68 156q-66 64 -158 64h-2 q-92 0 -156 -62q-122 76 -276 122q-152 42 -320 48l122 398l342 -74v-8q0 -72 54 -128q54 -50 130 -54l2 4h10q70 0 120 54q52 50 52 128t-56 128q-52 54 -125 54h-5l-6 2q-72 -4 -126 -54q-28 -32 -40 -66l-370 82q-12 4 -24 -2q-10 -6 -14 -18l-136 -448 q-370 -8 -622 -174q-70 64 -152 64h-2q-94 0 -160 -70q-66 -68 -66 -160zM582 808l4 2q0 58 36 94q42 42 92 42h2q52 0 92 -40q38 -40 40 -96q-2 -54 -38 -92q-38 -38 -89 -38h-5h-2q-52 0 -94 38q-36 36 -38 90zM668 358l8 4q-2 14 8 22q8 10 22 10q12 0 22 -8 q76 -78 282 -78l-2 -2l4 -2q196 0 280 84q6 8 20 10q12 -2 22 -8q6 -10 8 -22q-2 -14 -10 -22q-102 -102 -326 -102l-2 -4q-4 0 -4 -2h-4q-222 0 -318 98q-12 8 -10 22zM1180 806h2q2 56 36 92q40 40 89 40h5h4q50 0 92 -40q34 -38 38 -92q-2 -56 -38 -94q-44 -40 -94 -40 h-2q-54 0 -94 38q-38 40 -38 96z" />
<glyph unicode="D" d="M-4 892l4 4q0 -208 80 -398q82 -188 218 -326q138 -138 326 -218q190 -82 398 -82t398 80q188 82 326 218q136 138 218 326q80 190 80 398t-80 398q-82 188 -220 326q-136 136 -326 218q-190 80 -398 80t-398 -80q-188 -82 -326 -220q-138 -136 -218 -326 q-82 -190 -82 -398zM138 884l6 8v12v12l28 2q15 -1 33 -1t39 1q62 0 192 10q126 8 292 36q158 30 312 72q40 -80 70 -148q-16 0 -34 -12q-110 -30 -208 -90q-102 -50 -174 -118q-78 -58 -134 -120q-62 -54 -104 -118q-46 -54 -62 -86q-20 -22 -30 -44q-108 120 -166 268 q-60 152 -60 316zM152 1060l4 4q42 200 170 362q126 160 312 248q180 -254 324 -506q-184 -50 -384 -76q-202 -28 -286 -28q-68 -4 -110 -4h-30zM466 184l6 6q6 14 16 32q10 16 40 60q30 40 64 82q34 38 92 94q56 50 122 100q62 42 156 94q88 42 192 82q-2 -6 2 0q0 -4 2 0 q132 -350 186 -662q-160 -72 -333 -72h-9h-6q-298 0 -530 184zM792 1722h2q106 26 204 26q168 0 312 -58q154 -58 266 -164q-8 -20 -38 -44q-16 -26 -78 -76q-48 -50 -144 -102q-84 -54 -198 -94q-148 280 -326 512zM1186 1068l4 10q86 38 172 84q78 48 134 86q46 40 94 78 q38 44 60 60q10 22 26 32q188 -234 196 -546q-26 8 -48 8q-30 10 -94 12q-59 13 -111 13q-13 0 -25 -1q-34 6 -70 6q-22 0 -44 -2l-48 6q-88 -8 -174 -12l-14 40q-20 40 -58 126zM1310 764q88 8 172 12l10 -4h14q183 0 350 -52q-32 -178 -128 -334q-102 -150 -246 -252 q-54 294 -170 622z" />
<glyph unicode="E" d="M-10 842l4 -282l6 12q0 -124 62 -230q60 -104 166 -166q104 -62 230 -62q186 0 320 132q132 130 134 318l2 652q-2 44 32 76q28 30 76 30q40 0 76 -32q26 -32 32 -78l-6 -126l146 -64l202 60l6 146q-10 118 -66 222q-68 98 -166 160q-110 56 -226 60q-190 -4 -318 -128 q-138 -132 -138 -312l-6 -666v-8q0 -36 -32 -68q-28 -28 -76 -32q-42 2 -78 30q-28 34 -32 76l4 282zM1120 554h2q4 -120 62 -228q64 -102 168 -166q106 -58 228 -60q124 2 230 62q104 62 166 166q60 106 62 230l-2 284h-348l-2 -294q2 -44 -32 -76q-30 -32 -76 -32 q-44 0 -78 32q-28 30 -30 76v286l-210 -60l-140 62v-282z" />
<glyph unicode="F" d="M0 526h532v982h-204v-286h-328v-696zM204 688v370l122 -2v-366zM608 1302h2l204 2v202l-206 2v-206zM610 526h2l204 -2v698l-206 -2v-694zM894 280l534 -2l-2 944l-530 -2l-2 -694l328 -2v-80l-328 -2v-162zM1096 686h2v372l122 -4v-364zM1504 280h2l532 -4v946l-532 -4 v-692l326 -4v-78l-328 -4v-160zM1706 684h2v374l122 -6v-362z" />
<glyph unicode="G" d="M116 714q0 -68 12 -136v2q28 -172 122 -318q320 820 646 1362q-438 -184 -596 -386q-114 -142 -158 -314q-26 -106 -26 -210zM388 76l12 8q16 -16 36 -32q18 -16 30 -22q6 -8 18 -14q0 -2 4 -4q2 -2 4 -2q178 -118 388 -138q38 -2 76 -2q168 0 328 66q194 84 330 252 q66 88 120 224q52 138 86 288q28 152 54 314q18 164 30 308q6 148 12 262q2 120 4 184l-2 74q-2 28 -32 54q-20 14 -52 18l-6 -4q-70 -10 -176 -42q-676 -644 -1264 -1792z" />
<glyph unicode="H" d="M-8 1532l2 -1266l6 10h610q96 0 164 18q80 20 142 64t100 112q34 70 36 164q-2 116 -58 200q-58 82 -172 116q80 38 126 104q40 60 42 158q-2 88 -28 148q-32 56 -82 96q-72 42 -128 58q-106 18 -164 22zM252 1020l2 -2l4 292l266 -6q11 2 22 2q25 0 48 -10q34 0 60 -24 q32 -10 42 -42q17 -22 17 -59q0 -7 -1 -15v-5q0 -66 -48 -103q-38 -26 -122 -30zM258 466l2 352l310 -4h16q84 0 126 -38q54 -37 54 -124v-12q1 -8 1 -16q0 -38 -17 -68q-14 -30 -46 -52q-22 -14 -64 -26q-40 -8 -78 -12l-304 4v-4zM1114 702l6 8q2 -104 32 -194 q34 -84 92 -152q64 -62 146 -98q88 -32 194 -34q148 0 264 74q116 76 162 238l-220 2q-8 -30 -22 -46q-16 -20 -44 -40q-59 -40 -126 -40h-6h-8q-104 0 -154 54q-30 24 -44 78q-18 42 -18 87v9l656 -2q3 16 3 32q0 8 -1 16v14q0 69 -18 140q-24 100 -80 174q-52 74 -142 120 q-86 42 -204 44q-104 -2 -190 -38q-82 -38 -148 -102q-60 -66 -96 -152q-32 -94 -34 -192zM1308 1292l2 2l510 2v120l-512 2v-126zM1356 796l8 6q0 16 12 58q6 30 32 62q20 24 62 50q38 16 98 20q96 -4 142 -48q46 -58 58 -144z" />
<glyph unicode="I" d="M0 -128h1024v1024h-1024v-1024zM1024 896h1024v1024h-1024v-1024z" />
<glyph unicode="J" d="M-12 522q0 -54 12 -104l12 8h970v584h38h46h38q176 -10 302 -66q200 -88 252 -286q4 -30 6 -30h-340v262q0 22 -22 26q-10 2 -62 12q-54 10 -84 14q-20 2 -56 2q-38 2 -42 2v-524l970 -2q2 18 4 44q4 26 4 42v18q0 154 -114 294q-128 152 -354 244q-248 100 -546 102h-50 v190q-118 -12 -266 -26v-24v-150q0 -22 -20 -24q-216 -48 -384 -146q-154 -96 -234 -214q-80 -122 -80 -248zM364 620h2q4 112 112 220q102 110 226 124l-2 -344h-338z" />
<glyph unicode="K" d="M170 -128h752v436l-204 142l30 50l174 -122l-2 354l206 -2l-2 -226l172 88l28 -52l-200 -108v-156l322 158l24 -48l-346 -180l-2 -334l754 -4l-856 2052z" />
<glyph unicode="L" d="M74 1806l2 -1830l2 8q0 -86 60 -108q12 -4 24 -4q32 0 70 22l1246 690l426 228q62 34 64 84q-2 52 -64 84l-428 238l-1244 680q-25 15 -53 15q-6 0 -13 -1l-30 4q-60 -38 -62 -110z" />
<glyph unicode="M" d="M266 320l20 16q0 -34 38 -36q46 1 73 1t35 -1q138 -6 164 -12q162 -18 312 -132q96 -70 144 -106q170 -112 308 -158q70 -20 122 -22q16 2 28 2q114 16 180 124q62 104 62 228q0 12 -6 98q-2 0 -6 -4q-4 0 -6 -4q-2 0 -4 -2q-46 -32 -102 -48q-50 -12 -108 -14 q-62 2 -134 14q-80 20 -192 78q-54 32 -190 110q-130 82 -244 92q-20 4 -56 4q-2 28 2 42t20 32l886 1022q10 14 16 36q4 48 20 160q0 32 -30 32q-6 0 -6 -2h-6q-8 -2 -6 -2q-222 -42 -414 -46h-32q-162 0 -286 22q-84 18 -148 50q-12 10 -27 10h-5h-2q-15 0 -32 -22 q-50 -76 -80 -126q-28 -56 -38 -134q2 -6 0 -14q0 -32 10 -52q14 -22 52 -44q48 -22 118 -34q42 -2 88 -4q84 0 186 14l92 16q0 -2 -6 -8q-2 -6 -6 -8l-780 -922q-20 -22 -20 -50q-4 -38 -4 -102v-94z" />
<glyph unicode="N" d="M-24 1480l24 18l8 -4q44 -18 94 -68q56 -50 86 -108q102 -192 252 -566q158 -374 230 -536h94l292 576l250 -576l80 -2l522 1188q26 56 82 80q24 10 52 14l-6 66l-408 4l-4 -72q116 -22 138 -90l-368 -860q-108 214 -202 454q2 16 38 82q22 64 42 94q6 28 38 80 q16 48 48 92q12 36 48 78q34 58 160 70l-12 64h-426l-12 -68q34 0 38 -2q24 0 36 -6q32 -4 34 -14q20 -8 18 -24q14 -16 2 -38q-12 -46 -40 -94q-18 -48 -54 -110q-22 -60 -44 -92l-132 308q-8 20 4 32q0 14 22 20q8 8 30 12q6 2 34 6l-10 64l-482 4l-10 -70q52 0 68 -4 q28 0 56 -14q40 -10 48 -36q58 -94 130 -278q84 -180 112 -248l-218 -414l-384 872q0 16 -4 28q2 32 28 54q44 28 104 38l4 68l-524 2l-2 -4z" />
<glyph unicode="O" d="M136 822l14 8q0 -246 96 -472q98 -226 270 -388q120 -98 232 -98q42 0 122 26q148 58 190 58q68 0 150 -42q104 -38 178 -38q120 0 190 50q94 66 180 202q92 136 128 266q-124 32 -206 162q-76 126 -78 276q2 74 28 156q30 82 86 150q56 66 124 88q-36 70 -96 128 q-122 110 -294 110q-56 0 -250 -74q-66 -28 -148 -28t-166 48q-98 52 -219 52h-9h-8q-108 0 -206 -54q-96 -52 -166 -144q-64 -86 -104 -204q-36 -114 -38 -238zM998 1450h4q168 0 296 138q116 136 116 324q-176 -30 -294 -158q-122 -152 -122 -304z" />
<glyph unicode="P" d="M-12 10l12 8q8 6 14 12l450 450q12 14 12 28v170q0 110 -2 198q0 90 2 170q2 92 14 164q30 164 178 210q46 12 62 14q92 0 282 6l4 -2v-336q10 -18 20 -26q14 -8 30 4l814 816q2 0 2 4q4 4 6 8q2 0 4 2l-1168 -2h-21q-101 0 -181 -18q-356 -72 -472 -404 q-60 -162 -60 -382q0 -178 -2 -538v-538v-18zM134 -136l2 -2l1164 -2q110 2 204 20q344 74 460 388q64 161 64 366v24q1 91 1 226t-1 314q1 181 1 316t-1 224l2 18h-2t-2 2q-4 0 -4 2q-2 -4 -2 -6q-4 -4 -4 -6l-4 -4l-450 -450q-10 -10 -12 -30l2 -272v-154q0 -120 -2 -122 q0 -76 -16 -160q-32 -152 -164 -200q-50 -16 -96 -22q-86 -2 -260 -6l-10 2v328q0 24 -18 34q-18 6 -38 -12q0 -2 -4 -2l-2 -4l-596 -598z" />
<glyph unicode="Q" d="M78 558q-2 -16 14 -24l20 16q12 -14 38 -32q2 -2 10 -6q4 -2 24 -18l36 -36q14 -20 40 -56q18 -36 38 -80v-10h2l8 -22q14 -24 20 -34q12 -10 32 -36q24 -28 44 -38q24 -10 60 -32q38 -20 76 -20q30 -4 68 -4h26q52 0 114 14q0 -228 2 -230q155 -40 318 -40h16h14 q152 0 318 40q-2 2 -2 35t2 97q-1 65 -1 123.5t1 110.5q-2 172 -92 248q68 12 128 20q58 16 122 36q66 28 114 56q54 38 98 82q50 58 78 114q34 74 50 154q19 85 19 168q0 15 -1 30v12q0 212 -138 350q12 26 14 46q10 32 12 74q4 22 2 34v16q0 31 -6 60q-8 66 -36 126 q-2 6 -14 2l-6 6q-14 -6 -34 -2q-34 -8 -72 -14q-40 -18 -104 -44q-68 -38 -138 -80q-164 38 -338 44q-184 -8 -338 -44q-210 134 -338 140l-6 -6l-26 2q-26 -70 -34 -128q-8 -44 -8 -74v-36q6 -50 12 -74q6 -30 14 -46q-138 -156 -138 -362q0 -112 18 -198q18 -94 50 -154 q32 -68 80 -116q46 -56 98 -84q48 -38 116 -58q60 -28 122 -36q56 -16 128 -20q-72 -66 -86 -180q-30 -18 -60 -22q-32 -14 -76 -14l-24 -4q-32 4 -66 8q-40 14 -88 44q-44 40 -80 92q0 12 -8 12q-4 18 -26 30q-18 32 -42 40q-20 26 -58 32q-26 19 -56 19q-8 0 -16 -1l-6 8 l-2 -8l-14 6q-18 -8 -18 -4q-6 -10 -14 -8q-8 -14 -6 -12z" />
<glyph unicode="R" d="M360 888l6 8q0 -208 80 -398q80 -188 218 -326q134 -138 326 -218q186 -82 398 -82q78 0 146 10l-4 142q-51 -12 -124 -12h-22h-10q-171 0 -334 70q-158 68 -282 188q-114 116 -188 282q-66 160 -70 344q2 176 68 344q72 158 188 282q120 112 282 188q164 64 344 70 q84 -6 146 -12v134q-44 12 -97 12q-24 0 -49 -2q-17 1 -35 1q-189 0 -363 -81q-188 -74 -326 -220q-136 -128 -218 -326q-80 -182 -80 -398zM658 876l2 20q0 -204 96 -362q98 -174 262 -264q159 -98 341 -98h21q20 -1 38 -1q62 0 108 15l2 202q-66 -14 -146 -22 q-142 6 -260 68q-122 76 -190 188q-70 123 -70 253v7v8q0 141 70 252q66 124 188 188q110 70 245 70h15h12q71 0 134 -22l-4 210q-56 12 -146 14l-4 -2q-150 0 -278 -60q-136 -56 -228 -156q-98 -94 -152 -230q-56 -122 -56 -260v-18zM1082 872l8 8q4 -150 100 -242 q106 -92 250 -92q148 0 224 84l-124 136q-44 -48 -92 -48h-4h-6q-73 0 -108 44q-44 39 -44 105v11v11q0 61 40 103q38 40 114 42q56 -2 96 -48l124 132q-76 86 -226 86q-144 0 -250 -92q-96 -92 -102 -240z" />
<glyph unicode="S" d="M-12 1166l2 -360h10h360v-900h358v900h538v-900h358v900h358v360h-358v180q0 76 38 130t84 54h304v356h-304q-132 0 -244 -72q-110 -72 -176 -196q-64 -124 -64 -272v-180h-540v180q0 76 38 130t86 54h302l2 356h-308q-128 0 -242 -72q-110 -72 -176 -196 q-64 -124 -66 -272l2 -180h-362z" />
<glyph unicode="T" d="M458 592l28 18q0 -60 42 -102t102 -42q38 0 70 18l250 -180v-432h140v142l244 176q34 -20 76 -22q58 0 102 42q40 42 42 102q-2 60 -42 102q-44 42 -102 42q-62 0 -104 -44q-42 -40 -42 -97v-5q-2 -12 0 -18l-178 -128v430l244 176q34 -20 76 -22q58 0 102 42 q40 42 42 102q-2 60 -42 102q-44 42 -102 42q-62 0 -104 -44q-42 -40 -42 -97v-5q-2 -12 0 -18l-178 -128v402l246 178q36 -20 74 -22q60 2 102 42q42 44 42 102q0 60 -42 102t-102 42t-104 -42q-42 -42 -42 -102q0 -8 2 -20l-178 -130v612h-142v-322l-180 128q2 14 2 26 q0 62 -42 102q-42 44 -102 44t-104 -44q-42 -42 -42 -102t42 -102t102 -42q36 0 68 16l250 -182v-404l-180 130q2 16 2 24q0 60 -42 102q-40 42 -97 42h-5.5h-4.5q-57 0 -99 -42t-42 -104q0 -58 42 -102q42 -40 102 -42q36 0 70 18l248 -180l2 -432l-182 130q4 16 2 24v5 q0 57 -42 97q-40 42 -102 42q-58 0 -104 -44q-40 -42 -42 -102z" />
<glyph unicode="U" d="M-8 942l8 10q0 -124 32 -242q34 -118 92 -218q62 -100 146 -184q86 -84 188 -142q102 -60 222 -92q122 -32 246 -32q220 0 410 92l708 -204l-234 728q50 136 50 270v20v18q0 178 -74 334q-70 172 -198 290q-120 124 -298 192q-164 72 -352 72h-10q-186 0 -364 -72 q-168 -72 -298 -194q-120 -122 -200 -292q-70 -168 -74 -354zM288 922v14l8 6v15q0 160 84 295q82 142 230 224q141 82 310 82h8h8q164 0 308 -82q142 -82 230 -226q80 -140 84 -310q-4 -110 -42 -218l114 -328l4 -2l6 -28l44 -110l-152 40l-316 98q-144 -68 -294 -72 q-176 4 -318 82q-150 88 -232 224q-84 142 -84 296z" />
<glyph unicode="V" d="M92 1704l4 -1016l6 2q0 -166 64 -318q66 -152 174 -262q112 -110 262 -174q152 -66 318 -66h204q166 0 318 60q152 62 262 162q110 106 174 244q64 142 64 289v9v10q0 206 -82 374q-80 182 -224 278q-131 103 -285 103q-11 0 -23 -1l-408 8q-86 -8 -144 -60 q-62 -68 -62 -144q0 -94 58 -146q54 -61 127 -61q9 0 17 1l408 -8q5 1 10 1q70 0 128 -107q64 -93 64 -235v-17v-9q0 -135 -120 -243q-116 -98 -290 -106l-200 8h-20q-161 0 -270 120q-120 108 -120 277v11l-4 1016v11q0 84 -60 133q-50 61 -126 61q-9 0 -18 -1q-9 1 -17 1 q-72 0 -129 -61q-56 -52 -60 -144z" />
<glyph unicode="W" d="M65 220q0 -5 3 -12l70 58q10 -22 40 -24q28 -2 50 10q22 10 36 32q14 18 22 38q6 12 14 40l6 24q16 40 80 164q64 112 76 126q4 -2 50 46q44 36 72 64q8 2 32 28q22 12 38 30q14 4 34 22q18 2 32 10q34 -8 80 -36q40 -44 46 -68q-2 -14 0 -12q-2 -54 -34 -118 q-8 -30 -6 -28q0 -14 8 -30q0 -10 8 -32q8 -36 18 -56q6 -34 18 -56q10 -40 18 -52q8 -28 12 -24q32 -21 65 -21l15 1l10 -6q46 10 46 28q2 28 -26 40q-26 28 -50 30q-30 20 -30 28q0 12 -4 20l-10 44v-6l-8 38q20 12 46 48q26 20 44 46l14 12q16 -2 26 -8q4 -80 54 -294 q6 -12 6 -40q4 -18 4 -40q0 -12 2 -52q0 -28 2 -54v-48t-2 -96q-4 -90 -4 -102q0 -28 30 -58q30 -16 64 -22q30 6 60 16q24 20 30 40q0 20 -6 32q-10 20 -18 24l-12 12q-28 124 -30 210q2 208 10 230q16 30 28 90q18 50 22 90l10 34q14 2 46 0q24 2 94 10q64 10 106 28 q10 -44 10 -104v-10v-22q0 -44 -6 -82q-4 -54 -16 -108q-8 -56 -16 -86q-4 -30 -12 -46q-4 -22 -6 -54l2 -14q0 -42 12 -68q6 -24 40 -40q26 -14 54 -14q18 0 52 18q26 20 32 36q0 14 -10 30q-14 22 -30 42l-20 24q-10 14 -8 40v11q0 32 10 73q4 44 30 106q18 72 34 92 q42 86 44 148q0 14 -2 20q28 32 54 98q26 72 30 132l-2 12v6q0 57 -32 184q-32 142 -46 174q-8 24 -4 44q10 16 20 44q16 20 24 74q11 31 11 66q0 10 -1 20l4 12q8 10 24 28q4 18 16 34l-4 12q8 0 4 -8l12 -10l-4 -2l14 -12q6 -14 8 0q8 16 12 44q-4 8 -2 18q-10 40 -16 68 q-14 28 -22 52q-34 52 -88 52h-10q-46 30 -112 46q-54 12 -94 14l-2 -2h-42q-44 6 -94 8q-48 -2 -92 -10q-34 -14 -52 -22l-10 -14l-14 2q-30 -2 -64 -16q-26 -4 -66 -28q-32 -26 -40 -64q0 -48 -2 -78q0 -76 14 -78q24 -6 40 26q2 -22 10 -38q8 -18 16 -24l6 -8 q-10 -80 -14 -158q-118 -6 -218 -22q-96 -10 -152 -24q-50 -10 -90 -24q-34 -8 -50 -16q-12 -4 -16 -4q-40 18 -76 52q-32 36 -56 76q-18 40 -32 76q-10 34 -16 64q-6 58 -18 60v-2q-6 0 -8 -16q-2 -28 -2 -60q0 -34 4 -72q8 -62 26 -104q14 -38 38 -72q18 -30 36 -46 q10 -10 20 -16q4 -6 4 -12q-4 0 -14 -12q-14 -8 -34 -38q-24 -24 -60 -96q-38 -68 -62 -154q-52 -158 -94 -398q-4 -6 -14 -34q-16 -22 -34 -66q-22 -38 -34 -72q-90 -58 -88 -102q-1 -2 -1 -4z" />
<glyph unicode="X" d="M-10 318l10 6l114 -46q32 -144 146 -238q116 -94 264 -94q162 0 282 110q118 108 134 268l538 394q152 0 282 76q128 74 204 204q74 128 76 282q-2 152 -76 282q-76 128 -204 204q-132 74 -284 76q-154 -2 -280 -74q-132 -76 -206 -204q-78 -130 -78 -280l-352 -504 q-28 2 -44 2q-116 0 -214 -60l-312 126v-530zM236 212l6 2l152 -60q46 -20 90 -20l96 20q92 40 130 134q18 46 18 90q0 48 -20 96q-40 94 -136 132l-128 52q32 8 66 8q126 0 220 -90q86 -90 90 -220q-4 -128 -90 -218q-94 -90 -220 -90q-92 0 -160 44q-78 44 -114 120z M1084 1268l2 2q4 158 110 266q114 112 266 112q160 0 266 -112q110 -105 110 -251v-15v-15q0 -146 -110 -253q-106 -110 -268 -110q-150 0 -266 110q-104 110 -110 266zM1165 1289q0 -11 1 -23v2v-15q0 -115 88 -199q82 -86 214 -88q116 0 214 88q78 88 88 212 q-10 126 -88 212q-96 88 -209 88h-5h-6q-130 0 -208 -88q-89 -78 -89 -189z" />
<glyph unicode="Y" d="M-4 886l4 8q0 -176 58 -340q58 -162 166 -298q-4 10 -6 22q-6 18 -6 66l-2 18q2 42 8 98q12 54 42 154q36 90 90 196q58 98 158 238q106 132 238 278q-128 78 -254 148q-114 62 -174 92l-46 18q-138 -132 -204 -320q-72 -160 -72 -349v-29zM274 188q148 -156 334 -232 q180 -85 371 -85q16 0 33 1q18 -1 35 -1q200 0 371 85q198 76 334 234q4 0 -8 26q0 6 -28 72q-20 44 -56 112q-28 46 -92 144q-56 74 -134 170q-68 72 -184 188q-108 88 -242 198q-112 -100 -220 -184q-98 -110 -176 -182q-68 -100 -132 -172q-56 -98 -98 -152 q-32 -80 -62 -118q-22 -66 -38 -82zM340 1646l10 4q6 20 28 14q14 19 66 19q9 0 20 -1q19 12 41 12q16 0 33 -6q11 6 25 6q17 0 37 -10q6 1 13 1q66 0 171 -53q108 -32 226 -130l-2 14q84 46 164 100q82 26 146 58q64 0 122 24q30 -14 58 2q20 -16 42 -4q27 -14 52 -14 q10 0 20 2q26 -24 44 -16l12 -22q-134 132 -308 180q-140 67 -294 67q-31 0 -62 -3q-31 3 -62 3q-153 0 -296 -67q-168 -48 -306 -180zM1270 1310l4 6q106 -128 194 -220q84 -122 142 -196q52 -104 96 -170q38 -98 62 -146q16 -80 32 -120q6 -72 12 -96l-6 -30q6 -14 -2 -52 q4 -12 -6 -42l2 2q100 118 166 296q50 148 58 338q-8 186 -72 378q-80 166 -202 318q-188 -92 -480 -266z" />
<glyph unicode="Z" d="M-2 828h2l4 -676l838 -110v786h-844zM-2 930h842v820l-840 -120zM920 30l1124 -154l-2 952h-1120zM920 930h1122v986l-1122 -152v-834z" />
<glyph unicode="a" d="M-14 176l14 20q50 -6 100 -6q292 0 522 180q-138 2 -244 84q-110 80 -148 208q33 -8 65 -8h13h12q49 0 96 14q-144 28 -242 144q-94 112 -96 266l2 2q88 -46 190 -52q-86 58 -138 148q-50 92 -50 198q0 114 56 210q158 -192 382 -310q224 -114 482 -130q-12 50 -12 94 q0 174 122 296q124 122 296 122q184 0 306 -132q142 26 264 100q-44 -152 -184 -234q126 14 240 66q-82 -128 -210 -216q4 -38 2 -54v-16q0 -114 -26 -226q-22 -122 -76 -238q-50 -120 -124 -224q-72 -108 -174 -196q-100 -92 -220 -156q-116 -68 -266 -104 q-146 -38 -310 -38q-346 0 -644 188z" />
<glyph unicode="b" d="M524 772l2 4v346h254v296q0 88 30 168q28 76 88 140q56 62 156 98q94 36 222 36q58 0 122 -4q58 -4 90 -6l28 -4l-6 -322h-220q-90 0 -116 -36q-30 -36 -30 -107v-9l-2 -254h378l-18 -346h-358l-2 -960h-364l-2 960h-252z" />
<glyph unicode="c" d="M-14 272l14 16q0 -132 122 -228q120 -102 364 -104q294 4 446 138q148 127 148 289v8.5v8.5q0 114 -54 184q-54 74 -130 132l-76 68q-18 10 -36 40q-22 18 -22 60q0 32 20 66q22 26 38 48l68 54q30 38 54 66q54 84 54 200q0 76 -16 118q-20 62 -42 88q-22 42 -52 64 l-14 20v-8l-12 20q-14 6 -12 8q2 -12 -12 2l144 -4l144 84l-466 -2q-102 0 -198 -20q-112 -26 -206 -104q-146 -140 -146 -310q0 -144 102 -250q96 -114 284 -116q28 0 74 4l-18 -40q-4 -20 -8 -50q2 -52 22 -88q22 -40 44 -72q-66 0 -206 -20q-118 -22 -236 -86 q-96 -60 -140 -140q-36 -82 -40 -144zM178 306v8l10 6v16q0 54 24 90q18 44 54 70q30 30 64 42l46 22q76 20 146 32q50 2 74 4l20 -2q18 2 50 -2q128 -90 190 -152q54 -64 58 -156q-4 -106 -84 -178q-92 -70 -252 -72q-188 4 -288 80q-112 79 -112 192zM290 1360v12v12l4 4 v13q0 86 50 149q55 76 149 76h9h6q63 0 120 -42q46 -38 86 -110q64 -136 70 -278q-6 -22 -6 -78q-14 -44 -38 -90q-66 -60 -154 -66q-78 2 -130 42q-58 46 -92 106q-74 133 -74 250zM1116 1158l2 8l4 138l384 4l4 384l118 4l4 -394l384 4l4 -146l-392 2l2 -392h-126l2 388 h-390z" />
<glyph unicode="d" d="M188 1082l16 20q0 106 32 210q34 104 106 204q72 98 172 174q104 78 244 122q144 42 312 44q168 -2 314 -58q142 -62 242 -156q96 -98 152 -222q54 -130 54 -260q0 -364 -184 -598q-180 -236 -467 -236h-5h-8q-93 0 -172 44q-84 42 -118 108q-76 -308 -84 -334 q-38 -148 -174 -336l-82 -4q-12 106 -12 190q0 126 22 216l156 664q-38 76 -40 194q2 130 68 222q70 88 166 88q80 0 120 -52q42 -52 42 -130q0 -54 -18 -120q-20 -78 -48 -164q-22 -68 -42 -148q-6 -26 -6 -50q0 -64 42 -114q60 -70 154 -70q172 0 278 188q108 185 108 448 v10v6q0 200 -134 330q-132 124 -372 128q-266 -4 -432 -170q-164 -176 -166 -412q2 -144 80 -240q20 -26 20 -48q0 -12 -2 -18q-8 -34 -24 -98q-6 -26 -24 -30q-16 -12 -38 -2q-122 48 -186 174q-62 124 -62 286z" />
<glyph unicode="e" d="M-8 825v5l8 8q0 100 70 168l780 782q70 68 168 70q100 -2 168 -70l354 -354l-532 -528l-246 246q-54 54 -124 54h-10h-10q-73 0 -122 -54l-162 -156q-52 -58 -54 -132q0 -82 54 -132l540 -546q36 -34 88 -50l6 -2l38 -4q74 4 132 54l820 826l6 -6q68 -68 70 -170 q-2 -98 -70 -170l-782 -780q-66 -70 -165 -70h-5.5h-4.5q-95 0 -165 70l-780 778q-70 70 -70 163zM386 854l6 6q2 24 18 48l162 154q16 24 48 18q24 6 48 -18l328 -330l770 758q10 21 37 21q4 0 9 -1h4q20 0 42 -20l154 -158q21 -19 21 -41q0 -4 -1 -7q1 -4 1 -8 q0 -24 -21 -38l-966 -974q-18 -12 -48 -14l-4 6l2 -2q-4 2 -4 -2q-6 0 -6 -2q-26 4 -40 16l-540 542q-20 18 -20 46z" />
<glyph unicode="f" d="M-12 1370l12 112q10 4 84 4q70 0 170 -2q30 -2 66 -2q66 0 144 2q62 2 156 2q60 0 134 -2q182 -2 214 -6l-10 -72q-20 -4 -146 -14q-128 -8 -156 -14q80 -118 244 -330q162 -212 186 -246q12 20 112 98q96 80 188 158q84 82 94 116q-46 8 -138 20q-106 14 -120 14l-24 92 q26 4 96 4q80 0 184 -2q112 -2 150 -2q332 0 410 -6l-60 -88q-42 -6 -234 -48q-28 -6 -162 -106q-132 -100 -264 -218q-132 -116 -148 -160q-10 -50 -10 -126l-4 -76q0 -40 22 -186q16 -4 150 -4q136 0 154 -4l-2 -96q-46 2 -504 2q-32 0 -212 -6q-132 -2 -190 -2h-44l12 90 h76q78 0 128 8q60 6 74 26q8 4 8 8q4 4 4 12q4 6 2 14q2 4 2 22v24v4l-2 34v48v62q0 78 -6 130q-16 40 -248 328q-234 282 -310 344q-18 2 -140 20q-120 10 -142 20z" />
<glyph unicode="g" d="M0 1298l14 6q0 -152 76 -284q-18 -90 -20 -192q2 -194 76 -376q78 -176 204 -306q132 -128 306 -206q182 -74 374 -76q90 0 174 16q128 -66 262 -66q154 0 278 74q134 74 202 204q75 115 75 253q0 13 -1 27q1 14 1 27q0 112 -59 221q24 74 24 160q0 22 -2 46q1 19 1 38 q0 134 -49 264q-40 146 -138 264q-80 118 -208 208q-110 86 -264 138q-140 44 -304 48q-76 -4 -166 -14q-126 80 -296 84q-106 -4 -218 -44q-94 -48 -178 -120q-66 -78 -120 -178q-36 -108 -44 -216zM422 532l30 14q-1 6 -1 13q0 47 41 77q30 38 94 38h6q44 0 84 -30 q28 -30 54 -82q20 -58 54 -98q26 -40 80 -64q44 -24 138 -24q116 0 192 50q66 50 70 120q-4 58 -38 92q-42 36 -102 56q-74 22 -178 44q-148 30 -252 76q-108 42 -166 120q-62 74 -62 179v13v12q0 101 64 182q60 82 186 128q116 44 282 44q128 0 224 -30q94 -30 158 -80 q60 -50 92 -104q28 -56 30 -110q-2 -54 -38 -94q-42 -40 -100 -40q-56 0 -82 24q-28 24 -58 74q-36 70 -86 106q-50 38 -162 38q-104 0 -166 -42q-62 -38 -60 -92q-2 -32 18 -56q20 -26 56 -44q34 -18 78 -30q86 -22 132 -32q114 -26 212 -56q96 -34 164 -76 q64 -44 106 -114q36 -72 38 -170q-2 -120 -68 -214q-70 -96 -196 -148q-130 -54 -300 -54q-212 0 -346 72q-100 52 -158 140q-64 88 -64 172z" />
<glyph unicode="h" d="M184 540q2 8 0 16l10 4v6l30 348q0 36 46 62q14 8 38 6q18 -2 38 -8l14 -6l438 -218q2 -4 18 -12q4 -6 28 -28q10 -22 18 -46q-8 -24 -8 -42q-14 -16 -12 -22q-14 -4 -20 -12q-22 -8 -16 -8l-514 -112q0 -4 -20 -8q-6 -2 -40 0q-16 2 -34 18q2 8 -8 18q2 12 -4 24 q2 10 -2 20zM394 1616v8l10 8q0 14 8 22q6 16 24 26q10 12 26 16l4 4l410 150q-4 0 14 4q4 4 18 4h-6q14 0 22 -4q26 -6 38 -18q26 -10 28 -38q20 -26 14 -48l12 -22l-4 -692q8 -4 0 -10q6 -6 -6 -20q2 -16 -12 -28q0 -12 -20 -24q-6 -12 -28 -16q-18 -6 -48 2q-18 6 -36 18 l-4 8l-426 572q4 0 -2 2q0 4 -8 10q-4 8 -10 16q-4 8 -10 18q-2 12 -6 20q0 8 -2 12zM502 -32l4 8q-2 2 -2 12q0 8 4 26q8 18 16 38l10 8l338 380q2 -6 6 4q4 -4 16 10q10 0 22 10q8 -4 26 4q12 -4 26 -6q14 -14 28 -26q6 -24 12 -30l-2 -18l-4 -500q-4 -8 0 -18 q-2 -22 -8 -38q-12 -26 -28 -26q-13 -7 -24 -7q-4 0 -8 1q-11 -2 -18.5 -2t-11.5 2h-14l-338 108q-40 16 -50 60zM1150 784l6 8q4 20 4 30l10 14l270 430q8 6 8 14q12 10 26 24q22 12 34 12h8q16 -2 34 -12q12 -8 20 -18l2 -8l234 -274q0 -6 4 -14q0 -6 6 -30q4 -22 -2 -36 q-4 -16 -22 -32q-20 -16 -36 -24l-16 -6l-486 -142q-8 -2 -20 -2q-12 -2 -38 4q-26 8 -36 24q-10 22 -10 38zM1161 477.5q0 1.5 1 4.5l6 4q0 24 16 42q14 12 34 18q14 2 24 2q4 0 8 -2l12 -2l488 -156l8 -2q0 -2 16 -6q8 -4 22 -10q4 -6 16 -18q0 -10 6 -22q-6 -16 -6 -34 q-12 -16 -12 -26l-10 -10l-202 -294q-40 -32 -74 -32q-20 0 -36 14q-24 14 -32 30l-14 12l-258 436q-6 4 -6 18q-6 6 -6 23v9q-1 0 -1 1.5z" />
<glyph unicode="i" d="M304 712l4 14q0 -204 52 -376q52 -170 142 -288q90 -114 216 -182q124 -64 272 -66h2q138 0 272 60q140 62 240 160q106 100 166 230q66 128 66 255v7l2 8q-2 114 -24 208q-28 102 -66 168q-40 70 -104 130q-66 66 -122 100q-58 44 -138 86q10 -60 12 -128q-2 -14 -2 -38 q-8 -74 -30 -140q-26 -54 -66 -108q-42 -42 -94 -72q-56 -18 -116 -30q-18 2 -30 -2q-50 2 -100 14q60 108 98 194q32 94 42 158q0 30 2 50q-4 42 -6 74q-14 62 -32 106q-26 52 -48 94q-30 48 -50 94q-26 50 -36 98q-11 30 -11 62q0 9 1 18q-4 20 2 38q2 68 32 140 q-138 -92 -262 -290q-130 -188 -206 -424q-80 -221 -80 -413v-9zM470 412l10 6q2 14 -2 38q4 90 32 206q42 132 126 278q-14 -78 -16 -146q0 -50 6 -92q20 -112 68 -190q50 -82 118 -126q70 -46 142 -46l4 -2q76 2 144 34q66 38 118 102q48 68 86 150q34 86 60 188 q82 -62 132 -158q44 -88 54 -186q-2 -10 0 -26q-4 -78 -30 -164q-40 -90 -106 -168q-74 -70 -184 -122q-118 -42 -256 -50l-14 4h-19q-79 0 -155 30q-84 30 -158 92q-66 58 -112 150q-36 90 -48 198z" />
<glyph unicode="j" d="M-4 1604l4 4q0 100 72 174q74 72 174 72q102 0 174 -72q72 -74 72 -171v-5v-5q0 -97 -72 -171q-72 -72 -176 -72q-100 0 -174 72q-72 74 -74 174zM4 -138l6 6v1288q0 20 14 36q16 14 34 14h368q18 0 34 -14q14 -16 14 -38v-1288q0 -20 -16 -36t-36 -16h-366q-20 0 -36 14 q-16 16 -16 34zM662 -148l10 10v1288q0 22 14 36q16 16 36 14l356 2q18 -2 30 -6q8 -8 14 -28q0 -18 4 -26l-2 -14q2 -10 2 -22q134 128 357 128h7h8q246 0 390 -126q140 -126 144 -378l-4 -868q4 -22 -16 -36q-12 -18 -36 -18h-370q-24 0 -36 14q-20 16 -16 34l-4 788v16 q0 88 -40 136q-34 48 -140 48q-128 0 -184 -76q-50 -76 -54 -212l4 -700q-4 -22 -14 -36q-20 -16 -38 -16h-370q-16 0 -36 14q-12 16 -16 34z" />
<glyph unicode="k" d="M122 534l22 16q0 290 190 506q210 234 530 236q136 -2 250 -42q-44 -94 -54 -174q-92 36 -198 38q-220 -2 -382 -166q-158 -170 -160 -404q2 -152 72 -284q76 -132 196 -202q82 -48 176 -64q86 30 154 96q70 60 116 140q46 72 84 172q34 90 56 186q18 84 32 188 q12 94 16 174q4 70 4 148q0 68 -2 106q0 26 -2 50q-104 298 -284 602q10 -12 26 -20q16 -18 60 -66q42 -54 78 -114q34 -66 70 -170q32 -112 46 -232l-2 -6l6 -10q60 -172 76 -326q2 -62 4 -112q-2 -94 -16 -166q-26 -124 -74 -228q-54 -114 -106 -182q-58 -74 -116 -130 q-62 -64 -92 -82q-32 -28 -44 -32l-2 -4q148 4 266 70q126 74 196 202q74 136 74 284q0 124 -44 228q84 18 168 68q54 -132 54 -294q0 -292 -202 -514q-202 -218 -520 -220q-316 0 -520 220q-202 220 -202 514zM1219 1246q0 13 3 26l10 12v6q0 38 18 88q18 54 64 100 q4 6 20 18q12 10 70 40q52 24 126 44q2 -2 18 4q4 0 44 18q24 12 60 36q22 18 64 64q28 36 58 92q0 -14 18 -30q4 -22 36 -80q16 -64 38 -124q0 -56 10 -126q-10 -20 -2 -34q-12 -100 -34 -188q-12 -10 -6 -16q-14 -14 -20 -40q-26 -32 -34 -54q-26 -30 -46 -56 q-40 -34 -62 -50q-58 -32 -100 -36q-13 -4 -20 -4q-4 0 -6 2q-8 -1 -16 -1q-43 0 -78 19q-78 20 -132 86q6 4 44 26q16 10 98 66q60 42 126 96q44 40 102 112q36 56 52 116q-14 -12 -8 -18q-16 -16 -24 -40q-32 -38 -44 -62q-36 -34 -66 -68q-52 -44 -86 -70 q-56 -38 -108 -62q-76 -34 -136 -44q-16 0 -12 20q-20 6 -20 56q-19 25 -19 56z" />
<glyph unicode="l" d="M152 442l6 6q-6 10 -6 20q0 12 4 24l314 554h-2l-196 346q-16 26 -4 44t38 18h296q48 0 80 -56q200 -352 202 -354l-320 -564q-30 -58 -82 -58h-292q-28 0 -38 20zM800 632l6 4l658 1162q14 30 30 40q16 16 40 16h6h300q24 0 38 -20q4 -8 6 -20q-2 -12 -6 -24l-656 -1156 v-2l416 -762q12 -24 0 -46q-14 -18 -38 -18h-298q-48 0 -82 56q-416 768 -420 770z" />
<glyph unicode="m" d="M-2 212h2v144q0 118 84 202t202 84t202 -84q82 -82 82 -202v-144h-572zM16 960l4 4q0 110 76 186t181 76h5.5h5.5q108 0 180 -76q76 -72 76 -177v-11v-10q0 -101 -76 -176q-74 -76 -188 -78q-106 2 -186 76q-74 80 -78 186zM624 206l8 6l-4 156q4 136 92 224 q92 92 210 92h14h16q127 0 208 -92q93 -81 93 -206q0 -10 -1 -20l8 -154zM655 1028q0 10 1 20q-1 9 -1 18q0 105 87 190q78 80 208 86q114 -6 208 -86q78 -92 86 -208q-8 -128 -86 -208q-88 -86 -194 -86h-14h-16q-119 0 -192 86q-87 74 -87 188zM1324 206l8 186q-1 9 -1 19 q0 131 105 233q96 98 252 104q138 -6 252 -106q94 -110 104 -252l-10 -186l-704 6zM1342 1130h6q10 142 94 232q100 96 216 96h14h16q135 0 214 -96q97 -82 97 -208q0 -12 -1 -24q1 -9 1 -18q0 -119 -97 -214q-88 -90 -232 -96q-128 6 -232 96q-88 102 -96 232z" />
<glyph unicode="n" d="M-2 514h2v246h40v-246h-42zM98 430l2 2v388h40v-390h-42zM178 410h2v450h40v-450h-42zM258 390h2v450h40v-450h-42zM358 388l2 2v592h38v-594h-40zM436 386l2 2v674h40v-676h-42zM538 386v716h40v-716h-40zM618 386v736h40v-736h-40zM718 386v716h40v-716h-40zM798 384v2 v694h40v-696h-40zM878 382v2v776h40v-778h-40zM978 380v2v838h40v-840h-40zM1030 406l8 8v800q0 20 24 28q78 30 160 30q176 0 300 -118q130 -118 142 -288q48 18 96 18q106 0 178 -74q74 -72 74 -173v-5.5v-4.5q0 -101 -74 -175q-72 -74 -178 -74h-350h-352q-8 2 -20 8 q-6 10 -8 20z" />
<glyph unicode="o" d="M0 1296q0 32 16 62q26 50 80 64q192 60 434 78q130 12 260 12q118 -2 236 -10q256 -18 508 -88q254 -70 446 -184q48 -30 62 -84q4 -16 4 -34q0 -34 -18 -66q-30 -48 -84 -62q-18 -6 -34 -6q-34 0 -66 18q-222 132 -538 192q-258 52 -506 52h-18q-15 1 -29 1l-59 -3 q-296 -8 -522 -78q-20 -4 -40 -6q-32 2 -62 16q-48 28 -66 78l2 10q-6 20 -6 38zM92 782l8 12q-4 10 -4 30q0 22 12 52q22 36 64 54q272 78 568 82q132 -4 266 -16q448 -56 778 -258q44 -28 50 -68q4 -14 4 -22v-6q0 -34 -18 -58q-24 -44 -70 -50q-14 -6 -26 -4 q-30 -4 -58 16q-290 176 -690 224q-124 12 -242 14q-264 -2 -502 -72q-16 -6 -32 -6q-26 0 -52 12q-42 22 -56 64zM142 358l6 4q0 8 -2 20q0 22 12 48q20 28 54 40q290 62 546 66q480 -4 850 -226q32 -24 40 -56q2 -14 2 -22q0 -28 -14 -46q-20 -36 -56 -40q-8 -4 -16 -4h-6 h-6q-21 0 -40 12q-328 198 -758 200q-236 -2 -504 -60q-10 -4 -22 -4q-24 -2 -46 12q-32 20 -40 56z" />
<glyph unicode="p" d="M-8 834l8 4q0 -208 80 -400q82 -186 216 -326q140 -134 326 -218q192 -78 398 -80q210 0 398 80q190 80 326 218q138 134 216 326q80 178 80 379v19v19q0 196 -80 379q-78 186 -218 326q-134 132 -328 218q-184 74 -398 80q-204 -6 -398 -82q-186 -86 -326 -218 q-134 -142 -218 -326q-78 -196 -82 -398zM218 816l12 10l-4 12q4 92 24 196q12 24 16 60q66 164 188 302q136 122 300 192q136 36 266 46q206 -10 378 -96q184 -106 288 -262q56 -90 86 -178q16 -46 18 -62q24 -91 24 -179v-25q1 -15 1 -27q0 -24 -5 -39q0 -40 -12 -60 q-6 -40 -26 -50q-12 -32 -38 -34q-10 -16 -30 -16q-7 0 -16 2q0 -4 -1.5 -4t-4.5 4q-6 -1 -13 -1q-24 0 -59 17q-94 34 -188 162q-100 140 -172 222q-88 102 -184 188q-112 98 -218 150q-72 34 -166 60q-20 6 -28 0v-18q4 -8 2 -18q4 -14 2 -18q12 -102 12 -186 q0 -142 -32 -240q-36 -116 -124 -194q-90 -84 -170 -84h-4l-8 -2l-36 6q-48 18 -64 58q-14 46 -14 106z" />
<glyph unicode="q" d="M-22 788l22 30q0 280 136 434t392 154q234 0 364 -94q128 -94 204 -322l74 -236q24 -68 50 -118q32 -52 74 -94q48 -40 112 -62q68 -22 152 -22q124 0 182 28q62 30 62 92q0 56 -38 90q-36 38 -122 56l-160 38q-142 34 -208 108q-64 76 -64 196q0 76 24 132q22 60 62 96 q36 38 94 62q50 24 112 34q54 10 124 10q372 0 402 -298l-238 -28q-4 74 -52 108q-42 32 -130 32q-76 0 -124 -34q-42 -34 -44 -94q2 -54 30 -86q30 -32 104 -50l150 -32q156 -36 232 -116q76 -78 76 -213v-10q0 -321 -488 -321q-116 0 -212 22q-94 20 -160 56 q-64 34 -116 90q-46 52 -80 112q-28 52 -54 130l-72 230q-22 62 -36 98q-20 44 -44 82q-30 46 -60 66q-34 30 -80 40q-39 17 -84 17q-12 0 -24 -1q-12 2 -23 2q-35 0 -63 -14q-42 -6 -78 -42q-40 -24 -66 -74q-28 -38 -44 -112q-16 -54 -16 -132v-18v-8q0 -157 76 -260 q76 -92 198 -98q52 4 100 12q52 18 86 32q34 24 62 38q26 24 40 32l12 18l76 -208q-6 -2 -16 -14q-10 -4 -46 -30q-36 -18 -78 -38q-42 -12 -110 -30q-68 -10 -142 -14q-248 4 -380 140q-132 146 -132 406z" />
<glyph unicode="r" d="M168 400l8 6q0 272 28 400q16 66 64 112q50 44 116 54q210 22 634 24q424 -2 634 -24q66 -10 116 -54q50 -46 66 -112q14 -60 20 -136q6 -64 6 -105v-19q2 -48 2 -140q0 -274 -30 -400q-16 -70 -66 -114q-50 -46 -118 -52q-218 -26 -634 -26q-414 0 -634 22 q-66 8 -116 52q-50 46 -66 112q-30 132 -30 400zM296 688l2 2h122v-654h102v654h122v102h-348v-104zM434 1850l4 4q14 -34 74 -214q20 -56 40 -138q22 -78 28 -102l2 -322l100 -2l2 324l148 452h-112l-84 -302l-76 300h-126zM656 138l8 6q-1 -15 -1 -28q0 -38 9 -56 q10 -42 62 -42q46 0 112 68l-6 -58l108 -2l-4 574h-100l-4 -444q-26 -48 -60 -48q-16 0 -22 24l2 6h-2l2 14q-2 12 0 20l-2 424l-100 2zM838 1236v22l4 6l-2 198q2 100 26 134q45 58 110 58h4h5q74 0 109 -58q29 -29 29 -105q0 -14 -1 -29l4 -198q-4 -98 -30 -134 q-46 -60 -118 -60q-74 0 -114 56q-26 30 -26 110zM914 1236l2 4q4 -80 50 -80q51 0 51 64q0 7 -1 14l6 240q-6 78 -50 78q-53 0 -53 -66q0 -7 1 -14zM1036 4l6 10h76l4 52q56 -62 112 -62q58 0 82 62q6 32 8 112l-2 228v25q0 59 -8 87q-20 58 -86 62q-48 -4 -110 -62v244 l-82 4v-762zM1114 112l2 4v340q28 28 52 26q48 0 48 -78v-240q0 -78 -48 -78q-24 0 -54 26zM1186 1174l8 6q0 -44 12 -84q14 -42 70 -42q58 0 116 68l2 -74l100 -2l2 574h-104v-426q-30 -48 -66 -48q-16 0 -20 22v4q2 8 2 14q2 12 0 18l2 412l-124 -2v-440zM1384 168l4 8 q0 -84 34 -132q46 -56 122 -58q86 0 124 60q20 26 22 60l2 72h-102q1 -17 1 -30q0 -26 -3 -34q-6 -40 -48 -40q-52 0 -54 80l2 106l202 -2l2 114q-2 90 -28 132q-46 54 -120 56q-82 -2 -124 -58q-36 -48 -36 -134v-200zM1486 334v2h102v50q0 78 -50 78q-52 0 -52 -80v-50z " />
<glyph unicode="s" d="M0 1248l298 266q202 174 302 182q14 2 28 0h5q96 0 159 -72q74 -80 100 -256q62 -380 80 -468q72 -312 150 -314q68 2 192 202q132 206 138 308q4 22 2 34q2 140 -129 140h-11q-9 1 -18 1q-61 0 -132 -35q147 482 545 482h7l24 2q296 -12 298 -368q-2 -22 -2 -42 q-14 -300 -418 -820q-418 -544 -706 -544q-180 0 -304 330l-166 606q-92 330 -196 330q-22 0 -162 -98z" />
<glyph unicode="t" d="M284 102l10 14l88 -86v4l176 844l-176 -850l222 22l126 684l36 26l4 -2l-2 4l4 22v16l26 198l-26 -198l-4 -46l-4 4l-38 -28l-126 -682l-8 -50l108 -42h24l2 8l2 -26l172 -66l4 -10l354 68l4 10v10l60 -16l-6 10v-8l182 40v32l-6 4l66 -20l70 20l6 10l-10 4l118 12 l-162 748l-54 12l-80 -18l-10 104l-138 60l-34 412l56 78l-264 164l-24 314l2 -12l-32 -264l28 -24l-30 24l-10 -2l-8 10l-200 -284l42 -30l-18 -228l-50 16l-20 -54l-42 -208l-134 22l-64 -40l-16 -116l-40 -14zM796 866l14 14l124 106l12 -30zM810 994l14 6l112 110 l14 -10l-14 -12l-110 -110zM820 1086l14 2l-10 24l128 102l-12 -14zM828 666l14 22l-10 8l6 -40zM836 1210l118 104l-10 -18l-102 -120zM846 1306l8 -8l-4 30l106 86l-8 -12l-94 -106zM932 644l16 172l-10 -182zM942 852l6 2v6v-8l6 2l6 -8l-2 6l-4 -4l-2 6l-2 -4l-6 6v-6v6 zM946 858v2l4 -8zM1052 924v92l58 -18l2 -102zM1054 816v70l60 -18v-118l-12 12v30zM1054 1058v92l54 -22l4 -98zM1054 1180v70l50 -20l4 -82zM1054 1382v72l44 -22l2 -78zM1056 1286l2 66l46 -22l2 -72zM1132 1326l2 82l40 -28l6 -70zM1134 1228l4 76l40 -30l8 -62z M1136 1124l4 82l40 -32l12 -64zM1138 1004l6 102l40 -32l14 -82zM1142 874v106l48 -32l8 -82zM1144 738l2 118l44 -24l10 -76l-20 -16l4 -6z" />
<glyph unicode="u" d="M104 1600l20 12q32 -252 86 -478q52 -222 112 -386q58 -160 130 -300q68 -138 132 -228q58 -88 126 -160q60 -68 104 -104q36 -32 74 -54q46 -28 102 -30q42 0 96 26q26 18 84 64q44 42 118 114q58 70 132 152q58 84 134 188q58 106 116 208q116 0 246 28l-10 244 q-82 -18 -152 -18q-190 0 -330 132q-118 134 -128 360q8 114 38 172q45 60 100 60h4h5q64 0 93 -54q37 -47 37 -136q0 -13 -1 -26q1 -11 1 -23q0 -87 -39 -205q6 0 2 -4q8 -2 10 -12q12 -8 16 -18q12 -6 24 -20q16 -10 30 -20q20 -6 38 -16q28 -6 48 -12q30 -2 58 -2 q36 2 66 6q70 150 70 324v28v22q0 224 -116 344q-110 130 -329 130h-7h-8q-137 0 -250 -70q-102 -68 -164 -192q-50 -118 -56 -274q4 -226 100 -412q104 -180 274 -270q-142 -290 -354 -500q-74 96 -138 184q-58 92 -126 218q-62 128 -114 268q-44 140 -90 330 q-38 190 -68 410h-346z" />
<glyph unicode="v" d="M0 896q0 -192 136 -328t328 -136t328 136t136 328t-136 328t-328 136t-328 -136t-136 -328zM1120 896q0 -192 136 -328t328 -136t328 136t136 328t-136 328t-328 136t-328 -136t-136 -328z" />
<glyph unicode="w" d="M-20 682l20 28q2 -88 46 -158q44 -72 132 -108q74 -32 170 -32h18q172 4 274 140q14 28 40 60q-4 0 2 0q-4 -2 2 -8q-2 -4 2 -6q70 -146 216 -174q38 -10 84 -10q104 0 202 66q22 22 94 82l14 22l4 -4l18 28q28 20 20 22l24 -26q92 -90 114 -108q100 -82 216 -82h6 q18 -2 22 0q192 8 264 164q47 79 47 164q0 10 -1 20q1 10 1 20q0 71 -37 150q-26 66 -92 114q-54 40 -124 56q-32 2 -78 6q-22 -4 -56 -4q-96 -18 -184 -92q-4 -14 -114 -120l-6 -14q-14 12 -48 50l-62 62q-98 94 -220 106q-32 8 -50 2q-11 1 -22 1q-70 0 -122 -35 q-94 -38 -136 -140l-20 -22q-66 128 -202 158h-12q-24 0 -54 6q-100 -8 -182 -70q4 -2 -2 10q10 12 16 86q18 56 18 100q8 8 20 16l380 -8l-4 166l-528 -8l-98 -518q67 -5 102 -5q26 0 34 3q10 -2 18 -2q27 0 36 24q8 0 28 24q46 24 94 30q20 -6 32 -4q74 -18 108 -68 q30 -47 30 -95v-11q4 -16 0 -18q-2 -76 -48 -118q-40 -53 -103 -53q-7 0 -13 1q-20 -6 -52 6q-74 14 -102 114l-4 20zM802 734q8 2 0 14l10 4q4 14 4 38q18 46 48 80q44 24 84 32q38 -6 56 -8q58 -20 98 -56l106 -98v-18q-16 0 -30 -28q-34 -20 -34 -34q-20 -4 -30 -24 q-30 -12 -38 -26q-66 -28 -114 -32l-14 4h-9q-53 0 -101 46q-28 38 -36 106zM1432 728l4 4l96 102q70 52 132 62q10 -4 8 0q14 -2 8 0q68 -2 100 -36q48 -38 48 -98q5 -10 5 -19q0 -7 -3 -13q2 -9 2 -17q0 -13 -6 -23q-4 -56 -48 -84q-30 -30 -90 -30l2 -2q-86 0 -144 52 q-8 0 -114 102z" />
<glyph unicode="x" d="M-8 106l8 6v-40q12 -84 76 -144q68 -56 152 -58l1582 2q8 -2 28 2q84 8 146 76q54 62 58 152l-4 1578l4 12q-4 6 -2 8q-12 88 -78 152q-70 56 -160 60l-1574 -4q-20 4 -42 -4q-84 -12 -140 -82q-52 -60 -54 -154l2 -780q-1 -67 -1 -165t1 -227q-2 -264 -2 -390zM208 176 l8 2v874l186 -4q-20 -78 -20 -162q0 -150 72 -294q84 -156 240 -252q146 -80 314 -84q10 4 20 0q180 10 330 104q164 114 238 300q38 110 40 220q-2 84 -20 164l168 4l2 -20q-1 -46 -1 -109q0 -125 3 -317q0 -282 2 -428q-2 -32 -22 -58q-24 -20 -58 -24l-1418 4 q-5 -1 -9 -1q-29 0 -51 23q-22 20 -24 58zM610 863v15l2 2v5q0 160 116 273q112 116 278 116q158 0 278 -114q108 -116 114 -280q-6 -164 -116 -278q-120 -116 -278 -116q-170 0 -278 114q-116 111 -116 263zM1390 1348l2 4l6 234q-6 34 22 56q18 22 56 22h58h58h58h56 q34 0 56 -24q22 -22 22 -56v-234q0 -34 -24 -58q-22 -22 -56 -22h-234q-34 0 -58 22q-22 22 -22 56z" />
<glyph unicode="y" d="M-4 892l4 4q0 -208 80 -398q82 -188 218 -326q138 -138 326 -218q190 -82 398 -82t398 80q188 82 326 218q136 138 218 326q80 190 80 398t-80 398q-82 188 -220 326q-136 136 -326 218q-190 80 -398 80t-398 -80q-188 -82 -326 -220q-138 -136 -218 -326 q-82 -190 -82 -398zM96 890l2 2q0 194 78 374l440 -1204q-236 112 -376 336q-144 220 -144 492zM228 1384l18 8q126 194 328 302q199 112 432 112h8q174 0 336 -64q156 -64 286 -178h-6q-8 0 -6 0q-70 0 -110 -48q-46 -48 -46 -111v-5q-2 -12 0 -24q0 -12 4 -26q2 -12 6 -22 q0 -8 10 -24q6 -16 10 -22q0 -6 14 -26q6 -18 14 -22q-4 -4 14 -26q8 -20 14 -24q72 -132 76 -254q-4 -12 -2 -24q-4 -14 -4 -24q-2 -10 -4 -28q-4 -16 -4 -26q-4 -8 -8 -28q-8 -20 -8 -30q-4 -8 -10 -32q-8 -24 -10 -32q-4 -8 -12 -36q-10 -28 -10 -36l-94 -308l-330 990 l102 8q26 2 32 22q10 18 -2 38q-10 14 -36 16q-128 -12 -219 -12h-25q-13 -1 -28 -1q-31 0 -74 3q-58 0 -100 4l-38 2q-26 0 -36 -16q-12 -20 -4 -38q6 -22 30 -22q44 -6 94 -8l142 -394l-200 -604l-338 996l106 10q22 0 30 22q6 16 -4 38q-12 12 -34 16q-122 -13 -206 -13 q-21 0 -40 1q-38 -4 -58 0zM732 -10l2 2l278 806l280 -780q4 0 2 -6q6 -2 4 -6q-148 -50 -306 -52q-126 0 -260 36zM1454 72l2 6l280 810q70 176 70 328q0 56 -6 94q112 -200 112 -442q0 -244 -126 -462q-124 -206 -332 -334z" />
<glyph unicode="z" d="M380 1074l12 6h226v-720q0 -142 28 -214q30 -72 104 -138q76 -66 182 -102q110 -36 246 -36q128 0 228 24q108 26 236 86l4 324q-160 -102 -310 -102q-92 0 -156 40q-54 30 -70 80q-20 46 -20 199v29l-2 524h486v320h-486v518h-292q-20 -158 -72 -260q-52 -104 -138 -176 q-84 -72 -206 -112v-290z" />
<glyph unicode="&#xa0;" horiz-adv-x="1024" d="M0 0z" />
<glyph unicode="&#x2000;" horiz-adv-x="960" />
<glyph unicode="&#x2001;" horiz-adv-x="1920" />
<glyph unicode="&#x2002;" horiz-adv-x="960" />
<glyph unicode="&#x2003;" horiz-adv-x="1920" />
<glyph unicode="&#x2004;" horiz-adv-x="640" />
<glyph unicode="&#x2005;" horiz-adv-x="480" />
<glyph unicode="&#x2006;" horiz-adv-x="320" />
<glyph unicode="&#x2007;" horiz-adv-x="320" />
<glyph unicode="&#x2008;" horiz-adv-x="240" />
<glyph unicode="&#x2009;" horiz-adv-x="384" />
<glyph unicode="&#x200a;" horiz-adv-x="106" />
<glyph unicode="&#x202f;" horiz-adv-x="384" />
<glyph unicode="&#x205f;" horiz-adv-x="480" />
<glyph unicode="&#x25fc;" horiz-adv-x="1910" d="M0 0v1910h1910v-1910h-1910z" />
</font>
</defs>
</svg>
